<svg width="21" height="21" viewBox="0 0 21 21" fill="none" xmlns="http://www.w3.org/2000/svg">
<path d="M10.5039 5.10767C7.52616 5.10767 5.11568 7.52098 5.11568 10.4958C5.11568 13.4735 7.52904 15.8839 10.5039 15.8839C13.4816 15.8839 15.8921 13.4706 15.8921 10.4958C15.8921 7.51811 13.4788 5.10767 10.5039 5.10767ZM10.5039 13.9931C8.57083 13.9931 7.0065 12.4276 7.0065 10.4958C7.0065 8.56398 8.57206 6.99845 10.5039 6.99845C12.4357 6.99845 14.0013 8.56398 14.0013 10.4958C14.0021 12.428 12.437 13.9931 10.5039 13.9931Z" fill="white"/>
<path d="M14.8296 0.06697C12.8978 -0.0232626 8.11209 -0.018751 6.17862 0.06697C4.47934 0.146539 2.98063 0.556687 1.7719 1.76539C-0.247302 3.78455 0.0106867 6.50589 0.0106867 10.4966C0.0106867 14.5809 -0.21695 17.2391 1.7719 19.2283C3.7993 21.2548 6.56006 20.9895 10.5037 20.9895C14.5499 20.9895 15.9461 20.9919 17.3767 20.4382C19.3217 19.6831 20.79 17.9445 20.9336 14.8216C21.0246 12.8886 21.0193 8.10423 20.9336 6.1708C20.7605 2.48438 18.7819 0.249076 14.8296 0.06697ZM17.8878 17.892C16.5638 19.216 14.7271 19.0978 10.4783 19.0978C6.10315 19.0978 4.34891 19.1627 3.06881 17.8789C1.5943 16.4114 1.86131 14.0551 1.86131 10.4827C1.86131 5.64827 1.36502 2.16693 6.21717 1.91838C7.33198 1.879 7.6601 1.86588 10.466 1.86588L10.5054 1.89213C15.1684 1.89213 18.8266 1.40405 19.046 6.25488C19.0961 7.36187 19.1072 7.69409 19.1072 10.4958C19.1067 14.82 19.1888 16.5849 17.8878 17.892Z" fill="white"/>
<path d="M16.1058 6.1543C16.8012 6.1543 17.365 5.59056 17.365 4.89514C17.365 4.19973 16.8012 3.63599 16.1058 3.63599C15.4104 3.63599 14.8466 4.19973 14.8466 4.89514C14.8466 5.59056 15.4104 6.1543 16.1058 6.1543Z" fill="white"/>
</svg>
