<svg width="21" height="21" viewBox="0 0 21 21" fill="none" xmlns="http://www.w3.org/2000/svg">
<path fill-rule="evenodd" clip-rule="evenodd" d="M17.9404 3.05197C15.9663 1.08486 13.341 0.00123047 10.5439 0C4.78069 0 0.089844 4.66799 0.0877834 10.4053C0.0869591 12.2395 0.568325 14.0298 1.48366 15.6077L0 21L5.54313 19.553C7.07047 20.3823 8.78987 20.8191 10.5398 20.8195H10.5443C16.3071 20.8195 20.9979 16.1511 21.0004 10.4135C21.0012 7.63301 19.9145 5.01867 17.9404 3.05197ZM10.5439 19.062H10.5402C8.98069 19.0612 7.45128 18.6445 6.11681 17.8566L5.79947 17.6691L2.51027 18.528L3.38811 15.3362L3.18122 15.0088C2.31122 13.632 1.85169 12.0401 1.85252 10.4061C1.85417 5.63719 5.7529 1.75752 10.5468 1.75752C12.8679 1.75834 15.0501 2.65904 16.6908 4.29393C18.3315 5.92881 19.2349 8.10182 19.234 10.413C19.2328 15.1819 15.3341 19.062 10.5439 19.062ZM15.311 12.5844C15.0497 12.454 13.7651 11.8252 13.5256 11.7387C13.2862 11.6517 13.1119 11.6087 12.9379 11.8687C12.7636 12.1287 12.2629 12.7144 12.1108 12.8879C11.9583 13.0614 11.8062 13.0832 11.545 12.9531C11.2837 12.8231 10.4417 12.5483 9.44392 11.6624C8.66747 10.9729 8.14283 10.1214 7.99035 9.86139C7.83827 9.60094 7.98911 9.47379 8.10492 9.33064C8.38764 8.98119 8.67077 8.61451 8.75814 8.44143C8.84551 8.26793 8.80183 8.11617 8.7363 7.98574C8.67118 7.85572 8.1486 6.57562 7.931 6.05514C7.71875 5.54818 7.50362 5.61668 7.34289 5.60889C7.19082 5.6015 7.01649 5.59986 6.84216 5.59986C6.66783 5.59986 6.38511 5.66467 6.14525 5.92512C5.9058 6.18557 5.23115 6.81434 5.23115 8.09402C5.23115 9.37371 6.1675 10.6103 6.29773 10.7838C6.42838 10.9573 8.13995 13.5836 10.7607 14.7098C11.3838 14.9781 11.8705 15.1376 12.2501 15.2578C12.8761 15.4559 13.4453 15.4276 13.8957 15.3608C14.3977 15.2861 15.4412 14.7316 15.6592 14.1246C15.8768 13.5171 15.8768 12.9966 15.8113 12.8879C15.7466 12.7796 15.5723 12.7144 15.311 12.5844Z" fill="white"/>
</svg>
